<svg xmlns="http://www.w3.org/2000/svg" width="900" height="560" viewBox="0 0 900 560">
<rect width="100%" height="100%" fill="#ffffff"/>
<text x="450.0" y="32" text-anchor="middle" font-family="Arial" font-size="20" font-weight="700">Hibrido (3 paginas) - Taxa de falha (%)</text>
<line x1="92" y1="472" x2="684" y2="472" stroke="#111827" stroke-width="1.4"/>
<line x1="92" y1="472" x2="92" y2="54" stroke="#111827" stroke-width="1.4"/>
<polygon points="684,472 677,468 677,476" fill="#111827"/>
<polygon points="92,54 88,62 96,62" fill="#111827"/>
<text x="381.0" y="532" text-anchor="middle" font-family="Arial" font-size="15">Numero de instancias</text>
<text transform="translate(28 271.0) rotate(-90)" text-anchor="middle" font-family="Arial" font-size="15">Taxa de falha (%)</text>
<line x1="92" y1="391.6" x2="670" y2="391.6" stroke="#e5e7eb"/>
<text x="80" y="395.6" text-anchor="end" font-family="Arial" font-size="12">2</text>
<line x1="92" y1="311.2" x2="670" y2="311.2" stroke="#e5e7eb"/>
<text x="80" y="315.2" text-anchor="end" font-family="Arial" font-size="12">4</text>
<line x1="92" y1="230.8" x2="670" y2="230.8" stroke="#e5e7eb"/>
<text x="80" y="234.8" text-anchor="end" font-family="Arial" font-size="12">6</text>
<line x1="92" y1="150.4" x2="670" y2="150.4" stroke="#e5e7eb"/>
<text x="80" y="154.4" text-anchor="end" font-family="Arial" font-size="12">8</text>
<line x1="92" y1="70.0" x2="670" y2="70.0" stroke="#e5e7eb"/>
<text x="80" y="74.0" text-anchor="end" font-family="Arial" font-size="12">10</text>
<text x="188.3" y="498" text-anchor="middle" font-family="Arial" font-size="13">1</text>
<rect x="114.3" y="472.0" width="44.0" height="0.0" fill="#d9ead3" stroke="#333333" stroke-width="1"/>
<text x="136.3" y="467.0" text-anchor="middle" font-family="Arial" font-size="10" fill="#333333">0</text>
<rect x="166.3" y="472.0" width="44.0" height="0.0" fill="#d9e5e8" stroke="#333333" stroke-width="1"/>
<text x="188.3" y="467.0" text-anchor="middle" font-family="Arial" font-size="10" fill="#333333">0</text>
<rect x="218.3" y="472.0" width="44.0" height="0.0" fill="#fff0c6" stroke="#333333" stroke-width="1"/>
<text x="240.3" y="467.0" text-anchor="middle" font-family="Arial" font-size="10" fill="#333333">0</text>
<text x="381.0" y="498" text-anchor="middle" font-family="Arial" font-size="13">2</text>
<rect x="307.0" y="467.9" width="44.0" height="4.1" fill="#d9ead3" stroke="#333333" stroke-width="1"/>
<text x="329.0" y="462.9" text-anchor="middle" font-family="Arial" font-size="10" fill="#333333">0.103</text>
<rect x="359.0" y="449.0" width="44.0" height="23.0" fill="#d9e5e8" stroke="#333333" stroke-width="1"/>
<text x="381.0" y="444.0" text-anchor="middle" font-family="Arial" font-size="10" fill="#333333">0.573</text>
<rect x="411.0" y="202.9" width="44.0" height="269.1" fill="#fff0c6" stroke="#333333" stroke-width="1"/>
<text x="433.0" y="197.9" text-anchor="middle" font-family="Arial" font-size="10" fill="#333333">6.69</text>
<text x="573.7" y="498" text-anchor="middle" font-family="Arial" font-size="13">3</text>
<rect x="499.7" y="465.7" width="44.0" height="6.3" fill="#d9ead3" stroke="#333333" stroke-width="1"/>
<text x="521.7" y="460.7" text-anchor="middle" font-family="Arial" font-size="10" fill="#333333">0.158</text>
<rect x="551.7" y="472.0" width="44.0" height="0.0" fill="#d9e5e8" stroke="#333333" stroke-width="1"/>
<text x="573.7" y="467.0" text-anchor="middle" font-family="Arial" font-size="10" fill="#333333">0</text>
<rect x="603.7" y="352.7" width="44.0" height="119.3" fill="#fff0c6" stroke="#333333" stroke-width="1"/>
<text x="625.7" y="347.7" text-anchor="middle" font-family="Arial" font-size="10" fill="#333333">2.97</text>
<rect x="706" y="69" width="28" height="16" fill="#d9ead3" stroke="#333333"/>
<text x="742" y="82" font-family="Arial" font-size="14">152 usuarios</text>
<rect x="706" y="97" width="28" height="16" fill="#d9e5e8" stroke="#333333"/>
<text x="742" y="110" font-family="Arial" font-size="14">155 usuarios</text>
<rect x="706" y="125" width="28" height="16" fill="#fff0c6" stroke="#333333"/>
<text x="742" y="138" font-family="Arial" font-size="14">159 usuarios</text>
</svg>