<svg xmlns="http://www.w3.org/2000/svg" width="900" height="560" viewBox="0 0 900 560">
<rect width="100%" height="100%" fill="#ffffff"/>
<text x="450.0" y="32" text-anchor="middle" font-family="Arial" font-size="22" font-weight="700">Imagem 1 MB - Percentil 99 (s)</text>
<line x1="92" y1="472" x2="684" y2="472" stroke="#111827" stroke-width="1.4"/>
<line x1="92" y1="472" x2="92" y2="54" stroke="#111827" stroke-width="1.4"/>
<polygon points="684,472 677,468 677,476" fill="#111827"/>
<polygon points="92,54 88,62 96,62" fill="#111827"/>
<text x="381.0" y="532" text-anchor="middle" font-family="Arial" font-size="15">Numero de instancias</text>
<text transform="translate(28 271.0) rotate(-90)" text-anchor="middle" font-family="Arial" font-size="15">Percentil 99 (s)</text>
<line x1="92" y1="391.6" x2="670" y2="391.6" stroke="#e5e7eb"/>
<text x="80" y="395.6" text-anchor="end" font-family="Arial" font-size="12">1</text>
<line x1="92" y1="311.2" x2="670" y2="311.2" stroke="#e5e7eb"/>
<text x="80" y="315.2" text-anchor="end" font-family="Arial" font-size="12">2</text>
<line x1="92" y1="230.8" x2="670" y2="230.8" stroke="#e5e7eb"/>
<text x="80" y="234.8" text-anchor="end" font-family="Arial" font-size="12">3</text>
<line x1="92" y1="150.4" x2="670" y2="150.4" stroke="#e5e7eb"/>
<text x="80" y="154.4" text-anchor="end" font-family="Arial" font-size="12">4</text>
<line x1="92" y1="70.0" x2="670" y2="70.0" stroke="#e5e7eb"/>
<text x="80" y="74.0" text-anchor="end" font-family="Arial" font-size="12">5</text>
<text x="188.3" y="498" text-anchor="middle" font-family="Arial" font-size="13">1</text>
<rect x="114.3" y="447.9" width="44.0" height="24.1" fill="#d9ead3" stroke="#333333" stroke-width="1"/>
<rect x="166.3" y="453.5" width="44.0" height="18.5" fill="#d9e5e8" stroke="#333333" stroke-width="1"/>
<rect x="218.3" y="142.4" width="44.0" height="329.6" fill="#fff0c6" stroke="#333333" stroke-width="1"/>
<text x="381.0" y="498" text-anchor="middle" font-family="Arial" font-size="13">2</text>
<rect x="307.0" y="433.4" width="44.0" height="38.6" fill="#d9ead3" stroke="#333333" stroke-width="1"/>
<rect x="359.0" y="451.9" width="44.0" height="20.1" fill="#d9e5e8" stroke="#333333" stroke-width="1"/>
<rect x="411.0" y="214.7" width="44.0" height="257.3" fill="#fff0c6" stroke="#333333" stroke-width="1"/>
<text x="573.7" y="498" text-anchor="middle" font-family="Arial" font-size="13">3</text>
<rect x="499.7" y="430.2" width="44.0" height="41.8" fill="#d9ead3" stroke="#333333" stroke-width="1"/>
<rect x="551.7" y="450.3" width="44.0" height="21.7" fill="#d9e5e8" stroke="#333333" stroke-width="1"/>
<rect x="603.7" y="238.8" width="44.0" height="233.2" fill="#fff0c6" stroke="#333333" stroke-width="1"/>
<rect x="706" y="69" width="28" height="16" fill="#d9ead3" stroke="#333333"/>
<text x="742" y="82" font-family="Arial" font-size="14">10 usuarios</text>
<rect x="706" y="97" width="28" height="16" fill="#d9e5e8" stroke="#333333"/>
<text x="742" y="110" font-family="Arial" font-size="14">100 usuarios</text>
<rect x="706" y="125" width="28" height="16" fill="#fff0c6" stroke="#333333"/>
<text x="742" y="138" font-family="Arial" font-size="14">1000 usuarios</text>
</svg>