<svg xmlns="http://www.w3.org/2000/svg" width="720" height="500" viewBox="0 0 720 500">
<rect width="100%" height="100%" fill="#ffffff"/>
<text x="360.0" y="34" text-anchor="middle" font-family="Arial" font-size="17" font-weight="700">Texto 400 KB — 155 usuarios
Throughput (req/s)</text>
<line x1="90" y1="420" x2="670" y2="420" stroke="#111827" stroke-width="1.4"/>
<line x1="90" y1="420" x2="90" y2="56" stroke="#111827" stroke-width="1.4"/>
<polygon points="670,420 663,416 663,424" fill="#111827"/>
<polygon points="90,56 86,64 94,64" fill="#111827"/>
<text x="375.0" y="478" text-anchor="middle" font-family="Arial" font-size="14">Numero de instancias WordPress</text>
<text transform="translate(24 245.0) rotate(-90)" text-anchor="middle" font-family="Arial" font-size="14">Throughput (req/s)</text>
<line x1="90" y1="350.0" x2="660" y2="350.0" stroke="#e5e7eb"/>
<text x="80" y="354.0" text-anchor="end" font-family="Arial" font-size="12">10</text>
<line x1="90" y1="280.0" x2="660" y2="280.0" stroke="#e5e7eb"/>
<text x="80" y="284.0" text-anchor="end" font-family="Arial" font-size="12">20</text>
<line x1="90" y1="210.0" x2="660" y2="210.0" stroke="#e5e7eb"/>
<text x="80" y="214.0" text-anchor="end" font-family="Arial" font-size="12">30</text>
<line x1="90" y1="140.0" x2="660" y2="140.0" stroke="#e5e7eb"/>
<text x="80" y="144.0" text-anchor="end" font-family="Arial" font-size="12">40</text>
<line x1="90" y1="70.0" x2="660" y2="70.0" stroke="#e5e7eb"/>
<text x="80" y="74.0" text-anchor="end" font-family="Arial" font-size="12">50</text>
<rect x="130.0" y="93.7" width="136.7" height="326.3" fill="#cfe0ef" stroke="#333333" stroke-width="1.2"/>
<text x="198.3" y="86.7" text-anchor="middle" font-family="Arial" font-size="13" font-weight="600" fill="#111827">46.6</text>
<text x="198.3" y="444" text-anchor="middle" font-family="Arial" font-size="13">1 instancia</text>
<rect x="306.7" y="137.2" width="136.7" height="282.8" fill="#f4dfc6" stroke="#333333" stroke-width="1.2"/>
<text x="375.0" y="130.2" text-anchor="middle" font-family="Arial" font-size="13" font-weight="600" fill="#111827">40.4</text>
<text x="375.0" y="444" text-anchor="middle" font-family="Arial" font-size="13">2 instancias</text>
<rect x="483.3" y="175.8" width="136.7" height="244.2" fill="#efc7c7" stroke="#333333" stroke-width="1.2"/>
<text x="551.7" y="168.8" text-anchor="middle" font-family="Arial" font-size="13" font-weight="600" fill="#111827">34.9</text>
<text x="551.7" y="444" text-anchor="middle" font-family="Arial" font-size="13">3 instancias</text>
</svg>