<svg xmlns="http://www.w3.org/2000/svg" width="720" height="500" viewBox="0 0 720 500">
<rect width="100%" height="100%" fill="#ffffff"/>
<text x="360.0" y="34" text-anchor="middle" font-family="Arial" font-size="17" font-weight="700">Texto 400 KB — 159 usuarios
Taxa de falha (%)</text>
<line x1="90" y1="420" x2="670" y2="420" stroke="#111827" stroke-width="1.4"/>
<line x1="90" y1="420" x2="90" y2="56" stroke="#111827" stroke-width="1.4"/>
<polygon points="670,420 663,416 663,424" fill="#111827"/>
<polygon points="90,56 86,64 94,64" fill="#111827"/>
<text x="375.0" y="478" text-anchor="middle" font-family="Arial" font-size="14">Numero de instancias WordPress</text>
<text transform="translate(24 245.0) rotate(-90)" text-anchor="middle" font-family="Arial" font-size="14">Taxa de falha (%)</text>
<line x1="90" y1="350.0" x2="660" y2="350.0" stroke="#e5e7eb"/>
<text x="80" y="354.0" text-anchor="end" font-family="Arial" font-size="12">4</text>
<line x1="90" y1="280.0" x2="660" y2="280.0" stroke="#e5e7eb"/>
<text x="80" y="284.0" text-anchor="end" font-family="Arial" font-size="12">8</text>
<line x1="90" y1="210.0" x2="660" y2="210.0" stroke="#e5e7eb"/>
<text x="80" y="214.0" text-anchor="end" font-family="Arial" font-size="12">12</text>
<line x1="90" y1="140.0" x2="660" y2="140.0" stroke="#e5e7eb"/>
<text x="80" y="144.0" text-anchor="end" font-family="Arial" font-size="12">16</text>
<line x1="90" y1="70.0" x2="660" y2="70.0" stroke="#e5e7eb"/>
<text x="80" y="74.0" text-anchor="end" font-family="Arial" font-size="12">20</text>
<rect x="130.0" y="420.0" width="136.7" height="0.0" fill="#cfe0ef" stroke="#333333" stroke-width="1.2"/>
<text x="198.3" y="413.0" text-anchor="middle" font-family="Arial" font-size="13" font-weight="600" fill="#111827">0</text>
<text x="198.3" y="444" text-anchor="middle" font-family="Arial" font-size="13">1 instancia</text>
<rect x="306.7" y="136.0" width="136.7" height="284.0" fill="#f4dfc6" stroke="#333333" stroke-width="1.2"/>
<text x="375.0" y="129.0" text-anchor="middle" font-family="Arial" font-size="13" font-weight="600" fill="#111827">16.2</text>
<text x="375.0" y="444" text-anchor="middle" font-family="Arial" font-size="13">2 instancias</text>
<rect x="483.3" y="251.3" width="136.7" height="168.7" fill="#efc7c7" stroke="#333333" stroke-width="1.2"/>
<text x="551.7" y="244.3" text-anchor="middle" font-family="Arial" font-size="13" font-weight="600" fill="#111827">9.64</text>
<text x="551.7" y="444" text-anchor="middle" font-family="Arial" font-size="13">3 instancias</text>
</svg>