<svg xmlns="http://www.w3.org/2000/svg" width="920" height="560" viewBox="0 0 920 560">
<rect width="100%" height="100%" fill="#ffffff"/>
<text x="460.0" y="30" text-anchor="middle" font-family="Arial" font-size="22" font-weight="700">Imagem 1 MB - Percentil 95 (ms) por usuarios</text>
<text x="460.0" y="538" text-anchor="middle" font-family="Arial" font-size="15">Usuarios simultaneos</text>
<text transform="translate(24 280.0) rotate(-90)" text-anchor="middle" font-family="Arial" font-size="15">Percentil 95 (ms)</text>
<line x1="88" y1="482" x2="888" y2="482" stroke="#111827" stroke-width="1.4"/>
<line x1="88" y1="58" x2="88" y2="482" stroke="#111827" stroke-width="1.4"/>
<line x1="88" y1="482.0" x2="888" y2="482.0" stroke="#e5e7eb"/>
<text x="78" y="487.0" text-anchor="end" font-family="Arial" font-size="12">0</text>
<line x1="88" y1="397.2" x2="888" y2="397.2" stroke="#e5e7eb"/>
<text x="78" y="402.2" text-anchor="end" font-family="Arial" font-size="12">1000</text>
<line x1="88" y1="312.4" x2="888" y2="312.4" stroke="#e5e7eb"/>
<text x="78" y="317.4" text-anchor="end" font-family="Arial" font-size="12">2000</text>
<line x1="88" y1="227.60000000000002" x2="888" y2="227.60000000000002" stroke="#e5e7eb"/>
<text x="78" y="232.60000000000002" text-anchor="end" font-family="Arial" font-size="12">3000</text>
<line x1="88" y1="142.79999999999995" x2="888" y2="142.79999999999995" stroke="#e5e7eb"/>
<text x="78" y="147.79999999999995" text-anchor="end" font-family="Arial" font-size="12">4000</text>
<line x1="88" y1="58.0" x2="888" y2="58.0" stroke="#e5e7eb"/>
<text x="78" y="63.0" text-anchor="end" font-family="Arial" font-size="12">5000</text>
<line x1="88.0" y1="482" x2="88.0" y2="488" stroke="#111827"/>
<text x="88.0" y="506" text-anchor="middle" font-family="Arial" font-size="12">10</text>
<line x1="488.0" y1="482" x2="488.0" y2="488" stroke="#111827"/>
<text x="488.0" y="506" text-anchor="middle" font-family="Arial" font-size="12">100</text>
<line x1="888.0" y1="482" x2="888.0" y2="488" stroke="#111827"/>
<text x="888.0" y="506" text-anchor="middle" font-family="Arial" font-size="12">1000</text>
<polyline fill="none" stroke="#2563eb" stroke-width="3" points="88.0,460.0 488.0,467.6 888.0,219.1"/>
<circle cx="88.0" cy="460.0" r="4" fill="#2563eb"/>
<circle cx="488.0" cy="467.6" r="4" fill="#2563eb"/>
<circle cx="888.0" cy="219.1" r="4" fill="#2563eb"/>
<rect x="718" y="46" width="14" height="14" fill="#2563eb"/>
<text x="738" y="58" font-family="Arial" font-size="13">1 WP</text>
<polyline fill="none" stroke="#dc2626" stroke-width="3" points="88.0,452.3 488.0,470.1 888.0,287.0"/>
<circle cx="88.0" cy="452.3" r="4" fill="#dc2626"/>
<circle cx="488.0" cy="470.1" r="4" fill="#dc2626"/>
<circle cx="888.0" cy="287.0" r="4" fill="#dc2626"/>
<rect x="718" y="70" width="14" height="14" fill="#dc2626"/>
<text x="738" y="82" font-family="Arial" font-size="13">2 WP</text>
<polyline fill="none" stroke="#16a34a" stroke-width="3" points="88.0,448.1 488.0,471.0 888.0,295.4"/>
<circle cx="88.0" cy="448.1" r="4" fill="#16a34a"/>
<circle cx="488.0" cy="471.0" r="4" fill="#16a34a"/>
<circle cx="888.0" cy="295.4" r="4" fill="#16a34a"/>
<rect x="718" y="94" width="14" height="14" fill="#16a34a"/>
<text x="738" y="106" font-family="Arial" font-size="13">3 WP</text>
</svg>